/* XPM */
static char * bottom_left_active_xpm[] = {
"3 20 3 1",
" 	c None",
".	c #404040",
"+	c #272727",
".+.",
".+.",
".+.",
".+.",
".+.",
".+.",
".+.",
".+.",
".+.",
".+.",
".+.",
".+.",
".+.",
".+.",
".+.",
".+.",
".+.",
".+.",
".++",
"..."};
