/* XPM */
static char * bottom_active_xpm[] = {
"20 3 3 1",
" 	c None",
".	c #404040",
"+	c #272727",
"....................",
"++++++++++++++++++++",
"...................."};
