/* XPM */
static char * close_pressed_xpm[] = {
"24 24 26 1",
" 	c None",
".	c #404040",
"+	c #272727",
"@	c #282828",
"#	c #292929",
"$	c #2B2B2B",
"%	c #2C2C2C",
"&	c #2A2A2A",
"*	c #323232",
"=	c #353535",
"-	c #343434",
";	c #303030",
">	c #515151",
",	c #C4C4C4",
"'	c #525252",
")	c #3C3C3C",
"!	c #363636",
"~	c #FFFFFF",
"{	c #E0E0E0",
"]	c #5B5B5B",
"^	c #464646",
"/	c #E2E2E2",
"(	c #676767",
"_	c #5A5A5A",
":	c #E4E4E4",
"<	c #686868",
"........................",
"++++++++++++++++++++++++",
"++++++++++++++++++++++++",
"++++++++++++++++++++++++",
"++++++++@++++++@++++++++",
"++++++#$%%&@@&%%$#++++++",
"+++++#%*=-;%%;-=*%#+++++",
"+++++$*>,')!!)',>*$+++++",
"++++@%=,~{]^^]{~,=%@++++",
"+++++%-'{~/((/~{'-%+++++",
"+++++#;)_/~::~/_);#+++++",
"+++++@%!^<:~~:<^!%@+++++",
"+++++@%!^<:~~:<^!%@+++++",
"+++++#;)_/~::~/_);#+++++",
"+++++%-'{~/((/~{'-%+++++",
"++++@%=,~{]^^]{~,=%@++++",
"+++++$*>,')!!)',>*$+++++",
"+++++#%*=-;%%;-=*%#+++++",
"++++++#$%%&@@&%%$#++++++",
"++++++++@++++++@++++++++",
"++++++++++++++++++++++++",
"++++++++++++++++++++++++",
"++++++++++++++++++++++++",
"........................"};
