/* XPM */
static char * close_active_xpm[] = {
"24 24 8 1",
" 	c None",
".	c #404040",
"+	c #272727",
"@	c #353535",
"#	c #7F7F7F",
"$	c #323232",
"%	c #A8A8A8",
"&	c #919191",
"........................",
"++++++++++++++++++++++++",
"++++++++++++++++++++++++",
"++++++++++++++++++++++++",
"++++++++++++++++++++++++",
"++++++++++++++++++++++++",
"++++++++++++++++++++++++",
"+++++++@#$++++$#@+++++++",
"+++++++#%&$++$&%#+++++++",
"+++++++$&%&$$&%&$+++++++",
"++++++++$&%&&%&$++++++++",
"+++++++++$&%%&$+++++++++",
"+++++++++$&%%&$+++++++++",
"++++++++$&%&&%&$++++++++",
"+++++++$&%&$$&%&$+++++++",
"+++++++#%&$++$&%#+++++++",
"+++++++@#$++++$#@+++++++",
"++++++++++++++++++++++++",
"++++++++++++++++++++++++",
"++++++++++++++++++++++++",
"++++++++++++++++++++++++",
"++++++++++++++++++++++++",
"++++++++++++++++++++++++",
"........................"};
