/* XPM */
static char * hide_pressed_xpm[] = {
"24 24 11 1",
" 	c None",
".	c #404040",
"+	c #272727",
"@	c #2A2A2A",
"#	c #2B2B2B",
"$	c #2F2F2F",
"%	c #3C3C3C",
"&	c #434343",
"*	c #444444",
"=	c #292929",
"-	c #FFFFFF",
"........................",
"++++++++++++++++++++++++",
"++++++++++++++++++++++++",
"++++++++++++++++++++++++",
"++++++++++++++++++++++++",
"++++++++++++++++++++++++",
"++++++++++++++++++++++++",
"++++++++++++++++++++++++",
"++++++++++++++++++++++++",
"++++++++++++++++++++++++",
"++++++++++++++++++++++++",
"++++++++++++++++++++++++",
"+++++++@########@+++++++",
"++++++$%&******&%$++++++",
"+++++=%----------%=+++++",
"+++++=%----------%=+++++",
"++++++$%&******&%$++++++",
"+++++++@########@+++++++",
"++++++++++++++++++++++++",
"++++++++++++++++++++++++",
"++++++++++++++++++++++++",
"++++++++++++++++++++++++",
"++++++++++++++++++++++++",
"........................"};
