/* XPM */
static char * maximize_inactive_xpm[] = {
"24 24 12 1",
" 	c None",
".	c #404040",
"+	c #272727",
"@	c #676767",
"#	c #2C2C2C",
"$	c #5B5B5B",
"%	c #5C5C5C",
"&	c #5A5A5A",
"*	c #575757",
"=	c #2B2B2B",
"-	c #323232",
";	c #565656",
"........................",
"++++++++++++++++++++++++",
"++++++++++++++++++++++++",
"++++++++++++++++++++++++",
"++++++++++++++++++++++++",
"++++++++++++++++++++++++",
"++++++++++++++++++++++++",
"+++++++++++@@@@@@+++++++",
"+++++++++++@@@@@@+++++++",
"++++++++++++#$@@@+++++++",
"+++++++++++#%@&@@+++++++",
"+++++++++++*@$=@@+++++++",
"+++++++++++-;#+@@+++++++",
"++++++++++++++++++++++++",
"+++++++@@@++++++++++++++",
"+++++++@@@++++++++++++++",
"+++++++@@@++++++++++++++",
"++++++++++++++++++++++++",
"++++++++++++++++++++++++",
"++++++++++++++++++++++++",
"++++++++++++++++++++++++",
"++++++++++++++++++++++++",
"++++++++++++++++++++++++",
"........................"};
