/* XPM */
static char * maximize_pressed_xpm[] = {
"24 24 41 1",
" 	c None",
".	c #404040",
"+	c #272727",
"@	c #282828",
"#	c #2A2A2A",
"$	c #2B2B2B",
"%	c #292929",
"&	c #2C2C2C",
"*	c #313131",
"=	c #343434",
"-	c #363636",
";	c #353535",
">	c #3D3D3D",
",	c #464646",
"'	c #4B4B4B",
")	c #484848",
"!	c #2F2F2F",
"~	c #3B3B3B",
"{	c #FFFFFF",
"]	c #323232",
"^	c #303030",
"/	c #505050",
"(	c #707070",
"_	c #E4E4E4",
":	c #4C4C4C",
"<	c #373737",
"[	c #2E2E2E",
"}	c #3A3A3A",
"|	c #5C5C5C",
"1	c #E3E3E3",
"2	c #393939",
"3	c #D0D0D0",
"4	c #E1E1E1",
"5	c #6F6F6F",
"6	c #333333",
"7	c #606060",
"8	c #CECECE",
"9	c #5A5A5A",
"0	c #4F4F4F",
"a	c #424242",
"b	c #3C3C3C",
"........................",
"++++++++++++++++++++++++",
"++++++++++++++++++++++++",
"++++++++++++++++++++++++",
"++++++++++@#$$$$#@++++++",
"+++++++++%&*=--;*&%+++++",
"++++++++@&=>,'').;&@++++",
"++++++++%!~{{{{{{.]#++++",
"++++++++%^>{{{{{{);$++++",
"++++++++%!>/(_{{{:<&++++",
"++++++++%[}|1{1{{'<&++++",
"++++++@#&^23{45{{,=$++++",
"+++++%&*6;27890{{>*#++++",
"++++@&=>a.b22}b>~6&@++++",
"++++#*>{{{.-^[!^!&%+++++",
"++++#]a{{{a6&%%%%@++++++",
"++++#*>{{{>*#+++++++++++",
"++++@&=>a>;&@+++++++++++",
"+++++%&^]^&%++++++++++++",
"++++++@%#%@+++++++++++++",
"++++++++++++++++++++++++",
"++++++++++++++++++++++++",
"++++++++++++++++++++++++",
"........................"};
