/* XPM */
static char * maximize_toggled_active_xpm[] = {
"24 24 12 1",
" 	c None",
".	c #404040",
"+	c #272727",
"@	c #A8A8A8",
"#	c #313131",
"$	c #868686",
"%	c #3C3C3C",
"&	c #303030",
"*	c #909090",
"=	c #878787",
"-	c #919191",
";	c #323232",
"........................",
"++++++++++++++++++++++++",
"++++++++++++++++++++++++",
"++++++++++++++++++++++++",
"++++++++++++++++++++++++",
"++++++++++++++++++++++++",
"++++++++++++++++++++++++",
"+++++++++++@@+#$%+++++++",
"+++++++++++@@&*@=+++++++",
"+++++++++++@@*@-;+++++++",
"+++++++++++@@@*&++++++++",
"+++++++++++@@@@@@+++++++",
"+++++++++++@@@@@@+++++++",
"++++++++++++++++++++++++",
"+++++++@@@++++++++++++++",
"+++++++@@@++++++++++++++",
"+++++++@@@++++++++++++++",
"++++++++++++++++++++++++",
"++++++++++++++++++++++++",
"++++++++++++++++++++++++",
"++++++++++++++++++++++++",
"++++++++++++++++++++++++",
"++++++++++++++++++++++++",
"........................"};
