/* XPM */
static char * maximize_toggled_pressed_xpm[] = {
"24 24 42 1",
" 	c None",
".	c #404040",
"+	c #272727",
"@	c #282828",
"#	c #292929",
"$	c #2C2C2C",
"%	c #2F2F2F",
"&	c #303030",
"*	c #2E2E2E",
"=	c #2D2D2D",
"-	c #333333",
";	c #3B3B3B",
">	c #3D3D3D",
",	c #3C3C3C",
"'	c #3A3A3A",
")	c #373737",
"!	c #2A2A2A",
"~	c #313131",
"{	c #FFFFFF",
"]	c #4F4F4F",
"^	c #5A5A5A",
"/	c #CECECE",
"(	c #5E5E5E",
"_	c #2B2B2B",
":	c #343434",
"<	c #464646",
"[	c #6F6F6F",
"}	c #E1E1E1",
"|	c #D0D0D0",
"1	c #4B4B4B",
"2	c #E3E3E3",
"3	c #5B5B5B",
"4	c #4C4C4C",
"5	c #E4E4E4",
"6	c #707070",
"7	c #505050",
"8	c #494949",
"9	c #353535",
"0	c #434343",
"a	c #363636",
"b	c #323232",
"c	c #424242",
"........................",
"++++++++++++++++++++++++",
"++++++++++++++++++++++++",
"++++++++++++++++++++++++",
"++++++++++@###@@@+++++++",
"+++++++++#$%&%*=$#++++++",
"++++++++@$-;>,')-=#+++++",
"++++++++!~>{{]^/(-$+++++",
"++++++++_:<{{[}{|)=@++++",
"++++++++$)1{{2{23'*@++++",
"+++++++@$)4{{{567,%#++++",
"++++++@!*)8{{{{{{>&#++++",
"+++++#$~9;<{{{{{{;%#++++",
"++++@$:>000<841<>:$@++++",
"++++!~>{{{0;))a:~$#+++++",
"++++!bc{{{09*$__!@++++++",
"++++!~>{{{>~!@++++++++++",
"++++@$:>c>9$@+++++++++++",
"+++++#$&b&$#++++++++++++",
"++++++@#!#@+++++++++++++",
"++++++++++++++++++++++++",
"++++++++++++++++++++++++",
"++++++++++++++++++++++++",
"........................"};
