/* XPM */
static char * maximize_prelight_xpm[] = {
"24 24 14 1",
" 	c None",
".	c #404040",
"+	c #272727",
"@	c #FFFFFF",
"#	c #373737",
"$	c #D6D6D6",
"%	c #393939",
"&	c #D8D8D8",
"*	c #D5D5D5",
"=	c #C7C7C7",
"-	c #D7D7D7",
";	c #363636",
">	c #4A4A4A",
",	c #C6C6C6",
"........................",
"++++++++++++++++++++++++",
"++++++++++++++++++++++++",
"++++++++++++++++++++++++",
"++++++++++++++++++++++++",
"++++++++++++++++++++++++",
"++++++++++++++++++++++++",
"+++++++++++@@@@@@+++++++",
"+++++++++++@@@@@@+++++++",
"++++++++++++#$@@@+++++++",
"+++++++++++%&@*@@+++++++",
"+++++++++++=@-;@@+++++++",
"+++++++++++>,#+@@+++++++",
"++++++++++++++++++++++++",
"+++++++@@@++++++++++++++",
"+++++++@@@++++++++++++++",
"+++++++@@@++++++++++++++",
"++++++++++++++++++++++++",
"++++++++++++++++++++++++",
"++++++++++++++++++++++++",
"++++++++++++++++++++++++",
"++++++++++++++++++++++++",
"++++++++++++++++++++++++",
"........................"};
