/* XPM */
static char * top_right_active_xpm[] = {
"3 24 3 1",
" 	c None",
".	c #404040",
"+	c #272727",
".. ",
"++.",
"++.",
"++.",
"++.",
"++.",
"++.",
"++.",
"++.",
"++.",
"++.",
"++.",
"++.",
"++.",
"++.",
"++.",
"++.",
"++.",
"++.",
"++.",
"++.",
"++.",
"++.",
".+."};
